<svg  viewBox="-112 0 480 480.003" width="26" height="20" xmlns="http://www.w3.org/2000/svg"><path d="m8 0c-4.417969 0-8 3.582031-8 8v368c0 2.429688 1.105469 4.730469 3 6.246094l120 96c2.925781 2.34375 7.078125 2.34375 10 0l120-96c1.898438-1.515625 3.003906-3.816406 3-6.246094v-368c0-4.417969-3.582031-8-8-8zm232 372.160156-112 89.601563-112-89.601563v-356.160156h224zm0 0"/><path d="m128 128c22.09375 0 40-17.910156 40-40s-17.90625-40-40-40c-22.089844 0-40 17.910156-40 40 .027344 22.082031 17.921875 39.972656 40 40zm0-64c13.257812 0 24 10.746094 24 24s-10.742188 24-24 24c-13.253906 0-24-10.746094-24-24s10.746094-24 24-24zm0 0"/></svg>